<svg width="32" height="32" viewBox="0 0 32 32" fill="none" xmlns="http://www.w3.org/2000/svg">
  <path d="M24 8H8C6.9 8 6 8.9 6 10V22C6 23.1 6.9 24 8 24H24C25.1 24 26 23.1 26 22V10C26 8.9 25.1 8 24 8ZM24 22H8V10H24V22Z" fill="#1e3932"/>
  <path d="M12 12H10V20H12V12Z" fill="#1e3932"/>
  <path d="M16 12H14V20H16V12Z" fill="#1e3932"/>
  <path d="M20 12H18V20H20V12Z" fill="#1e3932"/>
  <path d="M22 12H24V14H22V12Z" fill="#1e3932"/>
  <path d="M22 16H24V18H22V16Z" fill="#1e3932"/>
  <path d="M22 18H24V20H22V18Z" fill="#1e3932"/>
  <path d="M16 6C16.6 6 17 5.6 17 5V3C17 2.4 16.6 2 16 2C15.4 2 15 2.4 15 3V5C15 5.6 15.4 6 16 6Z" fill="#1e3932"/>
  <path d="M21 6C21.6 6 22 5.6 22 5V3C22 2.4 21.6 2 21 2C20.4 2 20 2.4 20 3V5C20 5.6 20.4 6 21 6Z" fill="#1e3932"/>
  <path d="M11 6C11.6 6 12 5.6 12 5V3C12 2.4 11.6 2 11 2C10.4 2 10 2.4 10 3V5C10 5.6 10.4 6 11 6Z" fill="#1e3932"/>
</svg>